# xmcd
# 
# Track frame offsets:
#     150
#     16517
#     36585
#     61345
#     79300
#     93677
#     122652
#     132572
#     154420
#     174980
#     199625
#     222575
# 
# Disc length: 3250
# 
# Revision: 9
# Processed by: cddbd v1.5.2PL0 Copyright (c) Steve Scherf et al.
# Submitted via: fre:ac v1.0.27
# 
DISCID=ab0cb00c
DTITLE=Del Amitri - Twisted
DYEAR=1995
DGENRE=American Band Rock
TTITLE0=Food For Songs
TTITLE1=Start With Me
TTITLE2=Here and Now
TTITLE3=One Thing Left To Do
TTITLE4=Tell Her This
TTITLE5=Being Somebody Else
TTITLE6=Roll To Me
TTITLE7=Crashing Down
TTITLE8=It Might As Well Be You
TTITLE9=Never Enough
TTITLE10=It's Never Too Late To Be Alone
TTITLE11=Driving With The Brakes On
EXTD=
EXTT0=
EXTT1=
EXTT2=
EXTT3=
EXTT4=
EXTT5=
EXTT6=
EXTT7=
EXTT8=
EXTT9=
EXTT10=
EXTT11=
PLAYORDER=
